Later, With Jools Holland.s36eo4.(7th May 2010)[DTV-RIP-Divx]


First Shown On BBC 2 On Friday 7th May 2010


Description:

Joining Jools are London-based Mumford & Sons, who have been gradually accumulating fans and selling lots of copies of their debut album Sigh No More, from which they perform a few numbers.

Harpist Joanna Newsom returns to the studio to play a couple of songs from her recent acclaimed Have One On Me triple album; and Courtney Love and Hole make a welcome return to the studio for the first time since 1998 to perform tracks from their new album Nobody's Daughter.

Iggy Pop pops in to discuss the reissue of his incendiary classic album Raw Power, and Ozzy Osbourne is on hand to chat about his career. Finally, from Benin, West Africa, Angelique Kidjo performs numbers from her new album Oyo, which pays tribute to the music that inspired Angelique's childhood, such as classic songs by Curtis Mayfield and James Brown.


Ozzy Osbourne

comes to talk to us ahead of the summer release of his new album, Scream, and the revival of his festival Ozzfest.


Iggy Pop

Iggy Pop will be chatting about his current UK tour dates with the Stooges, who are soon to re-release their classic 1973 record, Raw Power.


Hole

Hole have been on a hiatus since 1998's Celebrity Skin, but twelve years on Courtney Love has reformed the band with new members to release a fourth album, Nobody's Daughter.


Joanna Newsom

Joanna Newsom brings her Appalachian-folk back to Later for the third time. She continues to draw inspiration from her love of nature and the elements on new album Have One On Me.


Mumford and Sons

It's a debut this week for Mumford and Sons, who are part of the burgeoning West London folk scene. They worked on their top 10 debut, Sigh No More, with Arcade Fire producer, Markus Dravs.


Angelique Kidjo

Grammy-winning Beninese singer Angelique Kidjo released Oyo in January, an album of covers by artists who inspired her, including Aretha Franklin and Curtis Mayfield.


Ian Hunter

Ian Hunter, famed frontman of Mott the Hoople, comes to Later with his Rant Band for the first time to play a track from latest album, Man Overboard, plus an old Mott the Hoople song.


Lissie

Lissie makes her TV debut on Later this week. The singer-songwriter from Illinois has been compared to Stevie Nicks and will release her major label debut in the summer.


General


Complete name : Later.s36eo4.divx
Format : AVI
Format/Info : Audio Video Interleave
File size : 731 MiB
Duration : 1h 5mn
Overall bit rate : 1 566 Kbps

Video
ID : 0
Format : MPEG-4 Visual
Format settings, BVOP : Yes
Format settings, QPel : No
Format settings, GMC : No warppoints
Format settings, Matrix : Default (H.263)
Muxing mode : Packed bitstream
Codec ID : DX50
Codec ID/Hint : DivX 5
Duration : 1h 5mn
Bit rate : 1 301 Kbps
Width : 688 pixels
Height : 384 pixels
Display aspect ratio : 16:9
Frame rate : 25.000 fps
Resolution : 8 bits
Colorimetry : 4:2:0
Scan type : Progressive
Bits/(Pixel*Frame) : 0.197
Stream size : 607 MiB (83%)
Title : Video
Writing library : DivX 6.8.2 (UTC 2008-05-17)

Audio
ID : 1
Format : AC-3
Format/Info : Audio Coding 3
Codec ID : 2000
Duration : 1h 5mn
Bit rate mode : Constant
Bit rate : 256 Kbps
Channel(s) : 2 channels
Channel positions : Front: L R
Sampling rate : 48.0 KHz
Stream size : 120 MiB (16%)
Alignment : Split accross interleaves
Interleave, duration : 40 ms (1.00 video frame)
Interleave, preload duration : 500 ms 
